<?xml version="1.0" encoding="utf-8"?>
<!-- Generator: Adobe Illustrator 16.0.0, SVG Export Plug-In . SVG Version: 6.00 Build 0)  -->
<!DOCTYPE svg PUBLIC "-//W3C//DTD SVG 1.1//EN" "http://www.w3.org/Graphics/SVG/1.1/DTD/svg11.dtd">
<svg version="1.1" id="Layer_1" xmlns="http://www.w3.org/2000/svg" xmlns:xlink="http://www.w3.org/1999/xlink" x="0px" y="0px"
	 width="1000px" height="1000px" viewBox="0 0 1000 1000" enable-background="new 0 0 1000 1000" xml:space="preserve">
<g>
	<g>
		<g>
			<path fill="#FFFFFF" d="M500,0C223.863,0,0,223.863,0,500s223.863,500,500,500s500-223.863,500-500S776.137,0,500,0z
				 M500,916.666C269.887,916.666,83.334,730.113,83.334,500S269.887,83.334,500,83.334S916.666,269.887,916.666,500
				S730.113,916.666,500,916.666z"/>
			<path fill="#FFFFFF" d="M749.992,458.334H541.666V250c0-23.012-18.654-41.666-41.666-41.666S458.334,226.988,458.334,250v208.334
				h-208.26c-23.012,0-41.666,18.654-41.666,41.666s18.654,41.666,41.666,41.666h208.258V750c0,23.012,18.654,41.666,41.666,41.666
				s41.666-18.654,41.666-41.666V541.666h208.324c23.012,0,41.666-18.654,41.666-41.666S773.004,458.334,749.992,458.334z"/>
		</g>
	</g>
</g>
</svg>
